<svg class="railroad-diagram" height="79" viewbox="0 0 556 79" width="556" xmlns="http://www.w3.org/2000/svg">
 <g transform="translate(.5 .5)">
  <g>
   <path d="M20 29v20m0 -10h20">
   </path>
  </g>
  <path d="M40 39h10">
  </path>
  <g>
   <path d="M50 39h0">
   </path>
   <path d="M506 39h0">
   </path>
   <g class="non-terminal">
    <path d="M50 39h0">
    </path>
    <path d="M155 39h0">
    </path>
    <rect height="22" width="105" x="50" y="28">
    </rect>
    <a>
     <text x="102.5" y="43">
      identifier
     </text>
    </a>
   </g>
   <path d="M155 39h10">
   </path>
   <path d="M165 39h10">
   </path>
   <g class="non-terminal">
    <path d="M175 39h0">
    </path>
    <path d="M271.5 39h0">
    </path>
    <rect height="22" width="96.5" x="175" y="28">
    </rect>
    <a>
     <text x="223.25" y="43">
      type_name
     </text>
    </a>
   </g>
   <path d="M271.5 39h10">
   </path>
   <g>
    <path d="M281.5 39h0">
    </path>
    <path d="M506 39h0">
    </path>
    <path d="M281.5 39a10 10 0 0 0 10 -10v0a10 10 0 0 1 10 -10">
    </path>
    <g>
     <path d="M301.5 19h184.5">
     </path>
    </g>
    <path d="M486 19a10 10 0 0 1 10 10v0a10 10 0 0 0 10 10">
    </path>
    <path d="M281.5 39h20">
    </path>
    <g>
     <path d="M301.5 39h0">
     </path>
     <path d="M486 39h0">
     </path>
     <path d="M301.5 39h10">
     </path>
     <g class="non-terminal">
      <path d="M311.5 39h0">
      </path>
      <path d="M476 39h0">
      </path>
      <rect height="22" width="164.5" x="311.5" y="28">
      </rect>
      <a>
       <text x="393.75" y="43">
        column_constraint
       </text>
      </a>
     </g>
     <path d="M476 39h10">
     </path>
     <path d="M311.5 39a10 10 0 0 0 -10 10v0a10 10 0 0 0 10 10">
     </path>
     <g>
      <path d="M311.5 59h164.5">
      </path>
     </g>
     <path d="M476 59a10 10 0 0 0 10 -10v0a10 10 0 0 0 -10 -10">
     </path>
    </g>
    <path d="M486 39h20">
    </path>
   </g>
  </g>
  <path d="M506 39h10">
  </path>
  <path d="M 516 39 h 20 m 0 -10 v 20">
  </path>
 </g>
 <style>
  svg {
    width: 100%;
}

path {
    stroke-width: 3;
    stroke: black;
    fill: rgba(0,0,0,0);
}
text {
    font: bold 14px monospace;
    text-anchor: middle;
    fill: black;
}
text.diagram-text {
    font-size: 12px;
}
text.diagram-arrow {
    font-size: 16px;
}
text.label {
    text-anchor: start;
}
text.comment {
    font: italic 12px monospace;
}
g.special-sequence rect {
    fill: #ffe79a;
    stroke: black;
}
g.special-sequence text {
    font-style: italic;
}
rect {
    stroke-width: 3;
}
rect.group-box {
    stroke: gray;
    stroke-dasharray: 10 5;
    fill: none;
}
g.non-terminal rect {
    fill: #feffdf;
    stroke: black;
}
g.terminal rect {
    fill: #feffdf;
    stroke: black;
}
path.diagram-text {
    stroke-width: 3;
    stroke: black;
    fill: white;
    cursor: help;
}
g.diagram-text:hover path.diagram-text {
    fill: #eee;
}
 </style>
</svg>
