<svg class="railroad-diagram" height="79" viewbox="0 0 1248 79" width="1248" xmlns="http://www.w3.org/2000/svg">
 <g transform="translate(.5 .5)">
  <g>
   <path d="M20 29v20m0 -10h20">
   </path>
  </g>
  <path d="M40 39h10">
  </path>
  <g>
   <path d="M50 39h0">
   </path>
   <path d="M1198 39h0">
   </path>
   <g class="terminal">
    <path d="M50 39h0">
    </path>
    <path d="M121 39h0">
    </path>
    <rect height="22" rx="10" ry="10" width="71" x="50" y="28">
    </rect>
    <text x="85.5" y="43">
     CREATE
    </text>
   </g>
   <path d="M121 39h10">
   </path>
   <path d="M131 39h10">
   </path>
   <g class="terminal">
    <path d="M141 39h0">
    </path>
    <path d="M203.5 39h0">
    </path>
    <rect height="22" rx="10" ry="10" width="62.5" x="141" y="28">
    </rect>
    <text x="172.25" y="43">
     TABLE
    </text>
   </g>
   <path d="M203.5 39h10">
   </path>
   <g>
    <path d="M213.5 39h0">
    </path>
    <path d="M447 39h0">
    </path>
    <path d="M213.5 39a10 10 0 0 0 10 -10v0a10 10 0 0 1 10 -10">
    </path>
    <g>
     <path d="M233.5 19h193.5">
     </path>
    </g>
    <path d="M427 19a10 10 0 0 1 10 10v0a10 10 0 0 0 10 10">
    </path>
    <path d="M213.5 39h20">
    </path>
    <g>
     <path d="M233.5 39h0">
     </path>
     <path d="M427 39h0">
     </path>
     <g class="terminal">
      <path d="M233.5 39h0">
      </path>
      <path d="M270.5 39h0">
      </path>
      <rect height="22" rx="10" ry="10" width="37" x="233.5" y="28">
      </rect>
      <text x="252" y="43">
       IF
      </text>
     </g>
     <path d="M270.5 39h10">
     </path>
     <path d="M280.5 39h10">
     </path>
     <g class="terminal">
      <path d="M290.5 39h0">
      </path>
      <path d="M336 39h0">
      </path>
      <rect height="22" rx="10" ry="10" width="45.5" x="290.5" y="28">
      </rect>
      <text x="313.25" y="43">
       NOT
      </text>
     </g>
     <path d="M336 39h10">
     </path>
     <path d="M346 39h10">
     </path>
     <g class="terminal">
      <path d="M356 39h0">
      </path>
      <path d="M427 39h0">
      </path>
      <rect height="22" rx="10" ry="10" width="71" x="356" y="28">
      </rect>
      <text x="391.5" y="43">
       EXISTS
      </text>
     </g>
    </g>
    <path d="M427 39h20">
    </path>
   </g>
   <path d="M447 39h10">
   </path>
   <g class="non-terminal">
    <path d="M457 39h0">
    </path>
    <path d="M562 39h0">
    </path>
    <rect height="22" width="105" x="457" y="28">
    </rect>
    <a>
     <text x="509.5" y="43">
      identifier
     </text>
    </a>
   </g>
   <path d="M562 39h10">
   </path>
   <path d="M572 39h10">
   </path>
   <g class="terminal">
    <path d="M582 39h0">
    </path>
    <path d="M610.5 39h0">
    </path>
    <rect height="22" rx="10" ry="10" width="28.5" x="582" y="28">
    </rect>
    <text x="596.25" y="43">
     (
    </text>
   </g>
   <path d="M610.5 39h10">
   </path>
   <path d="M620.5 39h10">
   </path>
   <g class="non-terminal">
    <path d="M630.5 39h0">
    </path>
    <path d="M735.5 39h0">
    </path>
    <rect height="22" width="105" x="630.5" y="28">
    </rect>
    <a>
     <text x="683" y="43">
      column_def
     </text>
    </a>
   </g>
   <path d="M735.5 39h10">
   </path>
   <g>
    <path d="M745.5 39h0">
    </path>
    <path d="M959 39h0">
    </path>
    <path d="M745.5 39a10 10 0 0 0 10 -10v0a10 10 0 0 1 10 -10">
    </path>
    <g>
     <path d="M765.5 19h173.5">
     </path>
    </g>
    <path d="M939 19a10 10 0 0 1 10 10v0a10 10 0 0 0 10 10">
    </path>
    <path d="M745.5 39h20">
    </path>
    <g>
     <path d="M765.5 39h0">
     </path>
     <path d="M939 39h0">
     </path>
     <path d="M765.5 39h10">
     </path>
     <g>
      <path d="M775.5 39h0">
      </path>
      <path d="M929 39h0">
      </path>
      <g class="terminal">
       <path d="M775.5 39h0">
       </path>
       <path d="M804 39h0">
       </path>
       <rect height="22" rx="10" ry="10" width="28.5" x="775.5" y="28">
       </rect>
       <text x="789.75" y="43">
        ,
       </text>
      </g>
      <path d="M804 39h10">
      </path>
      <path d="M814 39h10">
      </path>
      <g class="non-terminal">
       <path d="M824 39h0">
       </path>
       <path d="M929 39h0">
       </path>
       <rect height="22" width="105" x="824" y="28">
       </rect>
       <a>
        <text x="876.5" y="43">
         column_def
        </text>
       </a>
      </g>
     </g>
     <path d="M929 39h10">
     </path>
     <path d="M775.5 39a10 10 0 0 0 -10 10v0a10 10 0 0 0 10 10">
     </path>
     <g>
      <path d="M775.5 59h153.5">
      </path>
     </g>
     <path d="M929 59a10 10 0 0 0 10 -10v0a10 10 0 0 0 -10 -10">
     </path>
    </g>
    <path d="M939 39h20">
    </path>
   </g>
   <path d="M959 39h10">
   </path>
   <g class="terminal">
    <path d="M969 39h0">
    </path>
    <path d="M997.5 39h0">
    </path>
    <rect height="22" rx="10" ry="10" width="28.5" x="969" y="28">
    </rect>
    <text x="983.25" y="43">
     )
    </text>
   </g>
   <path d="M997.5 39h10">
   </path>
   <g>
    <path d="M1007.5 39h0">
    </path>
    <path d="M1198 39h0">
    </path>
    <path d="M1007.5 39a10 10 0 0 0 10 -10v0a10 10 0 0 1 10 -10">
    </path>
    <g>
     <path d="M1027.5 19h150.5">
     </path>
    </g>
    <path d="M1178 19a10 10 0 0 1 10 10v0a10 10 0 0 0 10 10">
    </path>
    <path d="M1007.5 39h20">
    </path>
    <g>
     <path d="M1027.5 39h0">
     </path>
     <path d="M1178 39h0">
     </path>
     <path d="M1027.5 39h10">
     </path>
     <g class="non-terminal">
      <path d="M1037.5 39h0">
      </path>
      <path d="M1168 39h0">
      </path>
      <rect height="22" width="130.5" x="1037.5" y="28">
      </rect>
      <a>
       <text x="1102.75" y="43">
        table_options
       </text>
      </a>
     </g>
     <path d="M1168 39h10">
     </path>
     <path d="M1037.5 39a10 10 0 0 0 -10 10v0a10 10 0 0 0 10 10">
     </path>
     <g>
      <path d="M1037.5 59h130.5">
      </path>
     </g>
     <path d="M1168 59a10 10 0 0 0 10 -10v0a10 10 0 0 0 -10 -10">
     </path>
    </g>
    <path d="M1178 39h20">
    </path>
   </g>
  </g>
  <path d="M1198 39h10">
  </path>
  <path d="M 1208 39 h 20 m 0 -10 v 20">
  </path>
 </g>
 <style>
  svg {
    width: 100%;
}

path {
    stroke-width: 3;
    stroke: black;
    fill: rgba(0,0,0,0);
}
text {
    font: bold 14px monospace;
    text-anchor: middle;
    fill: black;
}
text.diagram-text {
    font-size: 12px;
}
text.diagram-arrow {
    font-size: 16px;
}
text.label {
    text-anchor: start;
}
text.comment {
    font: italic 12px monospace;
}
g.special-sequence rect {
    fill: #ffe79a;
    stroke: black;
}
g.special-sequence text {
    font-style: italic;
}
rect {
    stroke-width: 3;
}
rect.group-box {
    stroke: gray;
    stroke-dasharray: 10 5;
    fill: none;
}
g.non-terminal rect {
    fill: #feffdf;
    stroke: black;
}
g.terminal rect {
    fill: #feffdf;
    stroke: black;
}
path.diagram-text {
    stroke-width: 3;
    stroke: black;
    fill: white;
    cursor: help;
}
g.diagram-text:hover path.diagram-text {
    fill: #eee;
}
 </style>
</svg>
