<svg class="railroad-diagram" height="62" viewbox="0 0 313 62" width="313" xmlns="http://www.w3.org/2000/svg">
 <g transform="translate(.5 .5)">
  <g>
   <path d="M20 21v20m10 -20v20m-10 -10h20">
   </path>
  </g>
  <path d="M40 31h10">
  </path>
  <g>
   <path d="M50 31h0">
   </path>
   <path d="M263 31h0">
   </path>
   <g class="terminal">
    <path d="M50 31h0">
    </path>
    <path d="M129.5 31h0">
    </path>
    <rect height="22" rx="10" ry="10" width="79.5" x="50" y="20">
    </rect>
    <text x="89.75" y="35">
     EXPLAIN
    </text>
   </g>
   <path d="M129.5 31h10">
   </path>
   <path d="M139.5 31h10">
   </path>
   <g class="terminal">
    <path d="M149.5 31h0">
    </path>
    <path d="M263 31h0">
    </path>
    <rect height="22" rx="10" ry="10" width="113.5" x="149.5" y="20">
    </rect>
    <text x="206.25" y="35">
     &lt;statement&gt;
    </text>
   </g>
  </g>
  <path d="M263 31h10">
  </path>
  <path d="M 273 31 h 20 m -10 -10 v 20 m 10 -20 v 20">
  </path>
 </g>
 <style>
  svg {
    width: 100%;
}

path {
    stroke-width: 3;
    stroke: black;
    fill: rgba(0,0,0,0);
}
text {
    font: bold 14px monospace;
    text-anchor: middle;
    fill: black;
}
text.diagram-text {
    font-size: 12px;
}
text.diagram-arrow {
    font-size: 16px;
}
text.label {
    text-anchor: start;
}
text.comment {
    font: italic 12px monospace;
}
g.special-sequence rect {
    fill: #ffe79a;
    stroke: black;
}
g.special-sequence text {
    font-style: italic;
}
rect {
    stroke-width: 3;
}
rect.group-box {
    stroke: gray;
    stroke-dasharray: 10 5;
    fill: none;
}
g.non-terminal rect {
    fill: #feffdf;
    stroke: black;
}
g.terminal rect {
    fill: #feffdf;
    stroke: black;
}
path.diagram-text {
    stroke-width: 3;
    stroke: black;
    fill: white;
    cursor: help;
}
g.diagram-text:hover path.diagram-text {
    fill: #eee;
}
 </style>
</svg>
