<svg class="railroad-diagram" height="71" viewbox="0 0 1602 71" width="1602" xmlns="http://www.w3.org/2000/svg">
 <g transform="translate(.5 .5)">
  <g>
   <path d="M20 30v20m0 -10h20">
   </path>
  </g>
  <path d="M40 40h10">
  </path>
  <g>
   <path d="M50 40h0">
   </path>
   <path d="M1552 40h0">
   </path>
   <g class="terminal">
    <path d="M50 40h0">
    </path>
    <path d="M121 40h0">
    </path>
    <rect height="22" rx="10" ry="10" width="71" x="50" y="29">
    </rect>
    <text x="85.5" y="44">
     SELECT
    </text>
   </g>
   <path d="M121 40h10">
   </path>
   <g>
    <path d="M131 40h0">
    </path>
    <path d="M259 40h0">
    </path>
    <path d="M131 40a10 10 0 0 0 10 -10v0a10 10 0 0 1 10 -10">
    </path>
    <g>
     <path d="M151 20h88">
     </path>
    </g>
    <path d="M239 20a10 10 0 0 1 10 10v0a10 10 0 0 0 10 10">
    </path>
    <path d="M131 40h20">
    </path>
    <g class="terminal">
     <path d="M151 40h0">
     </path>
     <path d="M239 40h0">
     </path>
     <rect height="22" rx="10" ry="10" width="88" x="151" y="29">
     </rect>
     <text x="195" y="44">
      DISTINCT
     </text>
    </g>
    <path d="M239 40h20">
    </path>
   </g>
   <g>
    <path d="M259 40h0">
    </path>
    <path d="M404 40h0">
    </path>
    <path d="M259 40a10 10 0 0 0 10 -10v0a10 10 0 0 1 10 -10">
    </path>
    <g>
     <path d="M279 20h105">
     </path>
    </g>
    <path d="M384 20a10 10 0 0 1 10 10v0a10 10 0 0 0 10 10">
    </path>
    <path d="M259 40h20">
    </path>
    <g class="non-terminal">
     <path d="M279 40h0">
     </path>
     <path d="M384 40h0">
     </path>
     <rect height="22" width="105" x="279" y="29">
     </rect>
     <a>
      <text x="331.5" y="44">
       top_clause
      </text>
     </a>
    </g>
    <path d="M384 40h20">
    </path>
   </g>
   <path d="M404 40h10">
   </path>
   <g class="non-terminal">
    <path d="M414 40h0">
    </path>
    <path d="M527.5 40h0">
    </path>
    <rect height="22" width="113.5" x="414" y="29">
    </rect>
    <a>
     <text x="470.75" y="44">
      select_list
     </text>
    </a>
   </g>
   <path d="M527.5 40h10">
   </path>
   <g>
    <path d="M537.5 40h0">
    </path>
    <path d="M691 40h0">
    </path>
    <path d="M537.5 40a10 10 0 0 0 10 -10v0a10 10 0 0 1 10 -10">
    </path>
    <g>
     <path d="M557.5 20h113.5">
     </path>
    </g>
    <path d="M671 20a10 10 0 0 1 10 10v0a10 10 0 0 0 10 10">
    </path>
    <path d="M537.5 40h20">
    </path>
    <g class="non-terminal">
     <path d="M557.5 40h0">
     </path>
     <path d="M671 40h0">
     </path>
     <rect height="22" width="113.5" x="557.5" y="29">
     </rect>
     <a>
      <text x="614.25" y="44">
       from_clause
      </text>
     </a>
    </g>
    <path d="M671 40h20">
    </path>
   </g>
   <g>
    <path d="M691 40h0">
    </path>
    <path d="M844.5 40h0">
    </path>
    <path d="M691 40a10 10 0 0 0 10 -10v0a10 10 0 0 1 10 -10">
    </path>
    <g>
     <path d="M711 20h113.5">
     </path>
    </g>
    <path d="M824.5 20a10 10 0 0 1 10 10v0a10 10 0 0 0 10 10">
    </path>
    <path d="M691 40h20">
    </path>
    <g class="non-terminal">
     <path d="M711 40h0">
     </path>
     <path d="M824.5 40h0">
     </path>
     <rect height="22" width="113.5" x="711" y="29">
     </rect>
     <a>
      <text x="767.75" y="44">
       with_clause
      </text>
     </a>
    </g>
    <path d="M824.5 40h20">
    </path>
   </g>
   <g>
    <path d="M844.5 40h0">
    </path>
    <path d="M1006.5 40h0">
    </path>
    <path d="M844.5 40a10 10 0 0 0 10 -10v0a10 10 0 0 1 10 -10">
    </path>
    <g>
     <path d="M864.5 20h122">
     </path>
    </g>
    <path d="M986.5 20a10 10 0 0 1 10 10v0a10 10 0 0 0 10 10">
    </path>
    <path d="M844.5 40h20">
    </path>
    <g class="non-terminal">
     <path d="M864.5 40h0">
     </path>
     <path d="M986.5 40h0">
     </path>
     <rect height="22" width="122" x="864.5" y="29">
     </rect>
     <a>
      <text x="925.5" y="44">
       where_clause
      </text>
     </a>
    </g>
    <path d="M986.5 40h20">
    </path>
   </g>
   <g>
    <path d="M1006.5 40h0">
    </path>
    <path d="M1194 40h0">
    </path>
    <path d="M1006.5 40a10 10 0 0 0 10 -10v0a10 10 0 0 1 10 -10">
    </path>
    <g>
     <path d="M1026.5 20h147.5">
     </path>
    </g>
    <path d="M1174 20a10 10 0 0 1 10 10v0a10 10 0 0 0 10 10">
    </path>
    <path d="M1006.5 40h20">
    </path>
    <g class="non-terminal">
     <path d="M1026.5 40h0">
     </path>
     <path d="M1174 40h0">
     </path>
     <rect height="22" width="147.5" x="1026.5" y="29">
     </rect>
     <a>
      <text x="1100.25" y="44">
       group_by_clause
      </text>
     </a>
    </g>
    <path d="M1174 40h20">
    </path>
   </g>
   <g>
    <path d="M1194 40h0">
    </path>
    <path d="M1364.5 40h0">
    </path>
    <path d="M1194 40a10 10 0 0 0 10 -10v0a10 10 0 0 1 10 -10">
    </path>
    <g>
     <path d="M1214 20h130.5">
     </path>
    </g>
    <path d="M1344.5 20a10 10 0 0 1 10 10v0a10 10 0 0 0 10 10">
    </path>
    <path d="M1194 40h20">
    </path>
    <g class="non-terminal">
     <path d="M1214 40h0">
     </path>
     <path d="M1344.5 40h0">
     </path>
     <rect height="22" width="130.5" x="1214" y="29">
     </rect>
     <a>
      <text x="1279.25" y="44">
       having_clause
      </text>
     </a>
    </g>
    <path d="M1344.5 40h20">
    </path>
   </g>
   <g>
    <path d="M1364.5 40h0">
    </path>
    <path d="M1552 40h0">
    </path>
    <path d="M1364.5 40a10 10 0 0 0 10 -10v0a10 10 0 0 1 10 -10">
    </path>
    <g>
     <path d="M1384.5 20h147.5">
     </path>
    </g>
    <path d="M1532 20a10 10 0 0 1 10 10v0a10 10 0 0 0 10 10">
    </path>
    <path d="M1364.5 40h20">
    </path>
    <g class="non-terminal">
     <path d="M1384.5 40h0">
     </path>
     <path d="M1532 40h0">
     </path>
     <rect height="22" width="147.5" x="1384.5" y="29">
     </rect>
     <a>
      <text x="1458.25" y="44">
       order_by_clause
      </text>
     </a>
    </g>
    <path d="M1532 40h20">
    </path>
   </g>
  </g>
  <path d="M1552 40h10">
  </path>
  <path d="M 1562 40 h 20 m 0 -10 v 20">
  </path>
 </g>
 <style>
  svg {
    width: 100%;
}

path {
    stroke-width: 3;
    stroke: black;
    fill: rgba(0,0,0,0);
}
text {
    font: bold 14px monospace;
    text-anchor: middle;
    fill: black;
}
text.diagram-text {
    font-size: 12px;
}
text.diagram-arrow {
    font-size: 16px;
}
text.label {
    text-anchor: start;
}
text.comment {
    font: italic 12px monospace;
}
g.special-sequence rect {
    fill: #ffe79a;
    stroke: black;
}
g.special-sequence text {
    font-style: italic;
}
rect {
    stroke-width: 3;
}
rect.group-box {
    stroke: gray;
    stroke-dasharray: 10 5;
    fill: none;
}
g.non-terminal rect {
    fill: #feffdf;
    stroke: black;
}
g.terminal rect {
    fill: #feffdf;
    stroke: black;
}
path.diagram-text {
    stroke-width: 3;
    stroke: black;
    fill: white;
    cursor: help;
}
g.diagram-text:hover path.diagram-text {
    fill: #eee;
}
 </style>
</svg>
