<svg class="railroad-diagram" height="392" viewbox="0 0 225 392" width="225" xmlns="http://www.w3.org/2000/svg">
 <g transform="translate(.5 .5)">
  <g>
   <path d="M20 21v20m10 -20v20m-10 -10h20">
   </path>
  </g>
  <g>
   <path d="M40 31h0">
   </path>
   <path d="M185 31h0">
   </path>
   <path d="M40 31h20">
   </path>
   <g class="terminal">
    <path d="M60 31h25.5">
    </path>
    <path d="M139.5 31h25.5">
    </path>
    <rect height="22" rx="10" ry="10" width="54" x="85.5" y="20">
    </rect>
    <text x="112.5" y="35">
     BOOL
    </text>
   </g>
   <path d="M165 31h20">
   </path>
   <path d="M40 31a10 10 0 0 1 10 10v10a10 10 0 0 0 10 10">
   </path>
   <g class="terminal">
    <path d="M60 61h12.75">
    </path>
    <path d="M152.25 61h12.75">
    </path>
    <rect height="22" rx="10" ry="10" width="79.5" x="72.75" y="50">
    </rect>
    <text x="112.5" y="65">
     DECIMAL
    </text>
   </g>
   <path d="M165 61a10 10 0 0 0 10 -10v-10a10 10 0 0 1 10 -10">
   </path>
   <path d="M40 31a10 10 0 0 1 10 10v40a10 10 0 0 0 10 10">
   </path>
   <g class="terminal">
    <path d="M60 91h34">
    </path>
    <path d="M131 91h34">
    </path>
    <rect height="22" rx="10" ry="10" width="37" x="94" y="80">
    </rect>
    <text x="112.5" y="95">
     ID
    </text>
   </g>
   <path d="M165 91a10 10 0 0 0 10 -10v-40a10 10 0 0 1 10 -10">
   </path>
   <path d="M40 31a10 10 0 0 1 10 10v70a10 10 0 0 0 10 10">
   </path>
   <g class="terminal">
    <path d="M60 121h21.25">
    </path>
    <path d="M143.75 121h21.25">
    </path>
    <rect height="22" rx="10" ry="10" width="62.5" x="81.25" y="110">
    </rect>
    <text x="112.5" y="125">
     IDSET
    </text>
   </g>
   <path d="M165 121a10 10 0 0 0 10 -10v-70a10 10 0 0 1 10 -10">
   </path>
   <path d="M40 31a10 10 0 0 1 10 10v100a10 10 0 0 0 10 10">
   </path>
   <g class="terminal">
    <path d="M60 151h17">
    </path>
    <path d="M148 151h17">
    </path>
    <rect height="22" rx="10" ry="10" width="71" x="77" y="140">
    </rect>
    <text x="112.5" y="155">
     IDSETQ
    </text>
   </g>
   <path d="M165 151a10 10 0 0 0 10 -10v-100a10 10 0 0 1 10 -10">
   </path>
   <path d="M40 31a10 10 0 0 1 10 10v130a10 10 0 0 0 10 10">
   </path>
   <g class="terminal">
    <path d="M60 181h29.75">
    </path>
    <path d="M135.25 181h29.75">
    </path>
    <rect height="22" rx="10" ry="10" width="45.5" x="89.75" y="170">
    </rect>
    <text x="112.5" y="185">
     INT
    </text>
   </g>
   <path d="M165 181a10 10 0 0 0 10 -10v-130a10 10 0 0 1 10 -10">
   </path>
   <path d="M40 31a10 10 0 0 1 10 10v160a10 10 0 0 0 10 10">
   </path>
   <g class="terminal">
    <path d="M60 211h17">
    </path>
    <path d="M148 211h17">
    </path>
    <rect height="22" rx="10" ry="10" width="71" x="77" y="200">
    </rect>
    <text x="112.5" y="215">
     STRING
    </text>
   </g>
   <path d="M165 211a10 10 0 0 0 10 -10v-160a10 10 0 0 1 10 -10">
   </path>
   <path d="M40 31a10 10 0 0 1 10 10v190a10 10 0 0 0 10 10">
   </path>
   <g class="terminal">
    <path d="M60 241h4.25">
    </path>
    <path d="M160.75 241h4.25">
    </path>
    <rect height="22" rx="10" ry="10" width="96.5" x="64.25" y="230">
    </rect>
    <text x="112.5" y="245">
     STRINGSET
    </text>
   </g>
   <path d="M165 241a10 10 0 0 0 10 -10v-190a10 10 0 0 1 10 -10">
   </path>
   <path d="M40 31a10 10 0 0 1 10 10v220a10 10 0 0 0 10 10">
   </path>
   <g class="terminal">
    <path d="M60 271h0">
    </path>
    <path d="M165 271h0">
    </path>
    <rect height="22" rx="10" ry="10" width="105" x="60" y="260">
    </rect>
    <text x="112.5" y="275">
     STRINGSETQ
    </text>
   </g>
   <path d="M165 271a10 10 0 0 0 10 -10v-220a10 10 0 0 1 10 -10">
   </path>
   <path d="M40 31a10 10 0 0 1 10 10v250a10 10 0 0 0 10 10">
   </path>
   <g class="terminal">
    <path d="M60 301h4.25">
    </path>
    <path d="M160.75 301h4.25">
    </path>
    <rect height="22" rx="10" ry="10" width="96.5" x="64.25" y="290">
    </rect>
    <text x="112.5" y="305">
     TIMESTAMP
    </text>
   </g>
   <path d="M165 301a10 10 0 0 0 10 -10v-250a10 10 0 0 1 10 -10">
   </path>
   <path d="M40 31a10 10 0 0 1 10 10v280a10 10 0 0 0 10 10">
   </path>
   <g class="terminal">
    <path d="M60 331h12.75">
    </path>
    <path d="M152.25 331h12.75">
    </path>
    <rect height="22" rx="10" ry="10" width="79.5" x="72.75" y="320">
    </rect>
    <text x="112.5" y="335">
     VARCHAR
    </text>
   </g>
   <path d="M165 331a10 10 0 0 0 10 -10v-280a10 10 0 0 1 10 -10">
   </path>
   <path d="M40 31a10 10 0 0 1 10 10v310a10 10 0 0 0 10 10">
   </path>
   <g class="terminal">
    <path d="M60 361h17">
    </path>
    <path d="M148 361h17">
    </path>
    <rect height="22" rx="10" ry="10" width="71" x="77" y="350">
    </rect>
    <text x="112.5" y="365">
     VECTOR
    </text>
   </g>
   <path d="M165 361a10 10 0 0 0 10 -10v-310a10 10 0 0 1 10 -10">
   </path>
  </g>
  <path d="M 185 31 h 20 m -10 -10 v 20 m 10 -20 v 20">
  </path>
 </g>
 <style>
  svg {
    width: 100%;
}

path {
    stroke-width: 3;
    stroke: black;
    fill: rgba(0,0,0,0);
}
text {
    font: bold 14px monospace;
    text-anchor: middle;
    fill: black;
}
text.diagram-text {
    font-size: 12px;
}
text.diagram-arrow {
    font-size: 16px;
}
text.label {
    text-anchor: start;
}
text.comment {
    font: italic 12px monospace;
}
g.special-sequence rect {
    fill: #ffe79a;
    stroke: black;
}
g.special-sequence text {
    font-style: italic;
}
rect {
    stroke-width: 3;
}
rect.group-box {
    stroke: gray;
    stroke-dasharray: 10 5;
    fill: none;
}
g.non-terminal rect {
    fill: #feffdf;
    stroke: black;
}
g.terminal rect {
    fill: #feffdf;
    stroke: black;
}
path.diagram-text {
    stroke-width: 3;
    stroke: black;
    fill: white;
    cursor: help;
}
g.diagram-text:hover path.diagram-text {
    fill: #eee;
}
 </style>
</svg>
