<svg class="railroad-diagram" height="537" viewbox="0 0 822 537" width="822" xmlns="http://www.w3.org/2000/svg">
 <g transform="translate(.5 .5)">
  <g>
   <path d="M20 21v20m0 -10h20">
   </path>
  </g>
  <g>
   <path d="M40 31h0">
   </path>
   <path d="M782 31h0">
   </path>
   <path d="M40 31h20">
   </path>
   <g class="terminal">
    <path d="M60 31h324">
    </path>
    <path d="M438 31h324">
    </path>
    <rect height="22" rx="10" ry="10" width="54" x="384" y="20">
    </rect>
    <text x="411" y="35">
     BOOL
    </text>
   </g>
   <path d="M762 31h20">
   </path>
   <path d="M40 31a10 10 0 0 1 10 10v18a10 10 0 0 0 10 10">
   </path>
   <g>
    <path d="M60 69h171.25">
    </path>
    <path d="M590.75 69h171.25">
    </path>
    <g class="terminal">
     <path d="M231.25 69h0">
     </path>
     <path d="M310.75 69h0">
     </path>
     <rect height="22" rx="10" ry="10" width="79.5" x="231.25" y="58">
     </rect>
     <text x="271" y="73">
      DECIMAL
     </text>
    </g>
    <path d="M310.75 69h10">
    </path>
    <g>
     <path d="M320.75 69h0">
     </path>
     <path d="M590.75 69h0">
     </path>
     <path d="M320.75 69a10 10 0 0 0 10 -10v0a10 10 0 0 1 10 -10">
     </path>
     <g>
      <path d="M340.75 49h230">
      </path>
     </g>
     <path d="M570.75 49a10 10 0 0 1 10 10v0a10 10 0 0 0 10 10">
     </path>
     <path d="M320.75 69h20">
     </path>
     <g>
      <path d="M340.75 69h0">
      </path>
      <path d="M570.75 69h0">
      </path>
      <g class="terminal">
       <path d="M340.75 69h0">
       </path>
       <path d="M403.25 69h0">
       </path>
       <rect height="22" rx="10" ry="10" width="62.5" x="340.75" y="58">
       </rect>
       <text x="372" y="73">
        SCALE
       </text>
      </g>
      <path d="M403.25 69h10">
      </path>
      <path d="M413.25 69h10">
      </path>
      <g class="non-terminal">
       <path d="M423.25 69h0">
       </path>
       <path d="M570.75 69h0">
       </path>
       <rect height="22" width="147.5" x="423.25" y="58">
       </rect>
       <a>
        <text x="497" y="73">
         integer_literal
        </text>
       </a>
      </g>
     </g>
     <path d="M570.75 69h20">
     </path>
    </g>
   </g>
   <path d="M762 69a10 10 0 0 0 10 -10v-18a10 10 0 0 1 10 -10">
   </path>
   <path d="M40 31a10 10 0 0 1 10 10v48a10 10 0 0 0 10 10">
   </path>
   <g class="terminal">
    <path d="M60 99h332.5">
    </path>
    <path d="M429.5 99h332.5">
    </path>
    <rect height="22" rx="10" ry="10" width="37" x="392.5" y="88">
    </rect>
    <text x="411" y="103">
     ID
    </text>
   </g>
   <path d="M762 99a10 10 0 0 0 10 -10v-48a10 10 0 0 1 10 -10">
   </path>
   <path d="M40 31a10 10 0 0 1 10 10v78a10 10 0 0 0 10 10">
   </path>
   <g class="terminal">
    <path d="M60 129h319.75">
    </path>
    <path d="M442.25 129h319.75">
    </path>
    <rect height="22" rx="10" ry="10" width="62.5" x="379.75" y="118">
    </rect>
    <text x="411" y="133">
     IDSET
    </text>
   </g>
   <path d="M762 129a10 10 0 0 0 10 -10v-78a10 10 0 0 1 10 -10">
   </path>
   <path d="M40 31a10 10 0 0 1 10 10v124a10 10 0 0 0 10 10">
   </path>
   <g>
    <path d="M60 175h17">
    </path>
    <path d="M745 175h17">
    </path>
    <g class="terminal">
     <path d="M77 175h0">
     </path>
     <path d="M148 175h0">
     </path>
     <rect height="22" rx="10" ry="10" width="71" x="77" y="164">
     </rect>
     <text x="112.5" y="179">
      IDSETQ
     </text>
    </g>
    <path d="M148 175h10">
    </path>
    <g>
     <path d="M158 175h0">
     </path>
     <path d="M745 175h0">
     </path>
     <path d="M158 175a10 10 0 0 0 10 -10v-7a10 10 0 0 1 10 -10">
     </path>
     <g>
      <path d="M178 148h547">
      </path>
     </g>
     <path d="M725 148a10 10 0 0 1 10 10v7a10 10 0 0 0 10 10">
     </path>
     <path d="M158 175h20">
     </path>
     <g>
      <path d="M178 175h0">
      </path>
      <path d="M725 175h0">
      </path>
      <path d="M178 175h10">
      </path>
      <g>
       <path d="M188 175h0">
       </path>
       <path d="M715 175h0">
       </path>
       <g class="terminal">
        <path d="M188 175h0">
        </path>
        <path d="M301.5 175h0">
        </path>
        <rect height="22" rx="10" ry="10" width="113.5" x="188" y="164">
        </rect>
        <text x="244.75" y="179">
         TIMEQUANTUM
        </text>
       </g>
       <path d="M301.5 175h10">
       </path>
       <path d="M311.5 175h10">
       </path>
       <g class="non-terminal">
        <path d="M321.5 175h0">
        </path>
        <path d="M460.5 175h0">
        </path>
        <rect height="22" width="139" x="321.5" y="164">
        </rect>
        <a>
         <text x="391" y="179">
          string_literal
         </text>
        </a>
       </g>
       <path d="M460.5 175h10">
       </path>
       <g>
        <path d="M470.5 175h0">
        </path>
        <path d="M715 175h0">
        </path>
        <path d="M470.5 175a10 10 0 0 0 10 -10v0a10 10 0 0 1 10 -10">
        </path>
        <g>
         <path d="M490.5 155h204.5">
         </path>
        </g>
        <path d="M695 155a10 10 0 0 1 10 10v0a10 10 0 0 0 10 10">
        </path>
        <path d="M470.5 175h20">
        </path>
        <g>
         <path d="M490.5 175h0">
         </path>
         <path d="M695 175h0">
         </path>
         <g class="terminal">
          <path d="M490.5 175h0">
          </path>
          <path d="M536 175h0">
          </path>
          <rect height="22" rx="10" ry="10" width="45.5" x="490.5" y="164">
          </rect>
          <text x="513.25" y="179">
           TTL
          </text>
         </g>
         <path d="M536 175h10">
         </path>
         <path d="M546 175h10">
         </path>
         <g class="non-terminal">
          <path d="M556 175h0">
          </path>
          <path d="M695 175h0">
          </path>
          <rect height="22" width="139" x="556" y="164">
          </rect>
          <a>
           <text x="625.5" y="179">
            string_literal
           </text>
          </a>
         </g>
        </g>
        <path d="M695 175h20">
        </path>
       </g>
      </g>
      <path d="M715 175h10">
      </path>
      <path d="M188 175a10 10 0 0 0 -10 10v0a10 10 0 0 0 10 10">
      </path>
      <g>
       <path d="M188 195h527">
       </path>
      </g>
      <path d="M715 195a10 10 0 0 0 10 -10v0a10 10 0 0 0 -10 -10">
      </path>
     </g>
     <path d="M725 175h20">
     </path>
    </g>
   </g>
   <path d="M762 175a10 10 0 0 0 10 -10v-124a10 10 0 0 1 10 -10">
   </path>
   <path d="M40 31a10 10 0 0 1 10 10v179a10 10 0 0 0 10 10">
   </path>
   <g>
    <path d="M60 230h65.25">
    </path>
    <path d="M696.75 230h65.25">
    </path>
    <g class="terminal">
     <path d="M125.25 230h0">
     </path>
     <path d="M170.75 230h0">
     </path>
     <rect height="22" rx="10" ry="10" width="45.5" x="125.25" y="219">
     </rect>
     <text x="148" y="234">
      INT
     </text>
    </g>
    <path d="M170.75 230h10">
    </path>
    <g>
     <path d="M180.75 230h0">
     </path>
     <path d="M696.75 230h0">
     </path>
     <path d="M180.75 230a10 10 0 0 0 10 -10v-7a10 10 0 0 1 10 -10">
     </path>
     <g>
      <path d="M200.75 203h476">
      </path>
     </g>
     <path d="M676.75 203a10 10 0 0 1 10 10v7a10 10 0 0 0 10 10">
     </path>
     <path d="M180.75 230h20">
     </path>
     <g>
      <path d="M200.75 230h0">
      </path>
      <path d="M676.75 230h0">
      </path>
      <g class="terminal">
       <path d="M200.75 230h0">
       </path>
       <path d="M246.25 230h0">
       </path>
       <rect height="22" rx="10" ry="10" width="45.5" x="200.75" y="219">
       </rect>
       <text x="223.5" y="234">
        MIN
       </text>
      </g>
      <path d="M246.25 230h10">
      </path>
      <path d="M256.25 230h10">
      </path>
      <g class="non-terminal">
       <path d="M266.25 230h0">
       </path>
       <path d="M413.75 230h0">
       </path>
       <rect height="22" width="147.5" x="266.25" y="219">
       </rect>
       <a>
        <text x="340" y="234">
         integer_literal
        </text>
       </a>
      </g>
      <path d="M413.75 230h10">
      </path>
      <g>
       <path d="M423.75 230h0">
       </path>
       <path d="M676.75 230h0">
       </path>
       <path d="M423.75 230a10 10 0 0 0 10 -10v0a10 10 0 0 1 10 -10">
       </path>
       <g>
        <path d="M443.75 210h213">
        </path>
       </g>
       <path d="M656.75 210a10 10 0 0 1 10 10v0a10 10 0 0 0 10 10">
       </path>
       <path d="M423.75 230h20">
       </path>
       <g>
        <path d="M443.75 230h0">
        </path>
        <path d="M656.75 230h0">
        </path>
        <g class="terminal">
         <path d="M443.75 230h0">
         </path>
         <path d="M489.25 230h0">
         </path>
         <rect height="22" rx="10" ry="10" width="45.5" x="443.75" y="219">
         </rect>
         <text x="466.5" y="234">
          MAX
         </text>
        </g>
        <path d="M489.25 230h10">
        </path>
        <path d="M499.25 230h10">
        </path>
        <g class="non-terminal">
         <path d="M509.25 230h0">
         </path>
         <path d="M656.75 230h0">
         </path>
         <rect height="22" width="147.5" x="509.25" y="219">
         </rect>
         <a>
          <text x="583" y="234">
           integer_literal
          </text>
         </a>
        </g>
       </g>
       <path d="M656.75 230h20">
       </path>
      </g>
     </g>
     <path d="M676.75 230h20">
     </path>
    </g>
   </g>
   <path d="M762 230a10 10 0 0 0 10 -10v-179a10 10 0 0 1 10 -10">
   </path>
   <path d="M40 31a10 10 0 0 1 10 10v217a10 10 0 0 0 10 10">
   </path>
   <g>
    <path d="M60 268h267.75">
    </path>
    <path d="M494.25 268h267.75">
    </path>
    <g class="terminal">
     <path d="M327.75 268h0">
     </path>
     <path d="M398.75 268h0">
     </path>
     <rect height="22" rx="10" ry="10" width="71" x="327.75" y="257">
     </rect>
     <text x="363.25" y="272">
      STRING
     </text>
    </g>
    <path d="M398.75 268h10">
    </path>
    <g>
     <path d="M408.75 268h0">
     </path>
     <path d="M494.25 268h0">
     </path>
     <path d="M408.75 268a10 10 0 0 0 10 -10v0a10 10 0 0 1 10 -10">
     </path>
     <g>
      <path d="M428.75 248h45.5">
      </path>
     </g>
     <path d="M474.25 248a10 10 0 0 1 10 10v0a10 10 0 0 0 10 10">
     </path>
     <path d="M408.75 268h20">
     </path>
     <g class="terminal">
      <path d="M428.75 268h0">
      </path>
      <path d="M474.25 268h0">
      </path>
      <rect height="22" rx="10" ry="10" width="45.5" x="428.75" y="257">
      </rect>
      <text x="451.5" y="272">
       MAX
      </text>
     </g>
     <path d="M474.25 268h20">
     </path>
    </g>
   </g>
   <path d="M762 268a10 10 0 0 0 10 -10v-217a10 10 0 0 1 10 -10">
   </path>
   <path d="M40 31a10 10 0 0 1 10 10v247a10 10 0 0 0 10 10">
   </path>
   <g class="terminal">
    <path d="M60 298h302.75">
    </path>
    <path d="M459.25 298h302.75">
    </path>
    <rect height="22" rx="10" ry="10" width="96.5" x="362.75" y="287">
    </rect>
    <text x="411" y="302">
     STRINGSET
    </text>
   </g>
   <path d="M762 298a10 10 0 0 0 10 -10v-247a10 10 0 0 1 10 -10">
   </path>
   <path d="M40 31a10 10 0 0 1 10 10v293a10 10 0 0 0 10 10">
   </path>
   <g>
    <path d="M60 344h0">
    </path>
    <path d="M762 344h0">
    </path>
    <g class="terminal">
     <path d="M60 344h0">
     </path>
     <path d="M165 344h0">
     </path>
     <rect height="22" rx="10" ry="10" width="105" x="60" y="333">
     </rect>
     <text x="112.5" y="348">
      STRINGSETQ
     </text>
    </g>
    <path d="M165 344h10">
    </path>
    <g>
     <path d="M175 344h0">
     </path>
     <path d="M762 344h0">
     </path>
     <path d="M175 344a10 10 0 0 0 10 -10v-7a10 10 0 0 1 10 -10">
     </path>
     <g>
      <path d="M195 317h547">
      </path>
     </g>
     <path d="M742 317a10 10 0 0 1 10 10v7a10 10 0 0 0 10 10">
     </path>
     <path d="M175 344h20">
     </path>
     <g>
      <path d="M195 344h0">
      </path>
      <path d="M742 344h0">
      </path>
      <path d="M195 344h10">
      </path>
      <g>
       <path d="M205 344h0">
       </path>
       <path d="M732 344h0">
       </path>
       <g class="terminal">
        <path d="M205 344h0">
        </path>
        <path d="M318.5 344h0">
        </path>
        <rect height="22" rx="10" ry="10" width="113.5" x="205" y="333">
        </rect>
        <text x="261.75" y="348">
         TIMEQUANTUM
        </text>
       </g>
       <path d="M318.5 344h10">
       </path>
       <path d="M328.5 344h10">
       </path>
       <g class="non-terminal">
        <path d="M338.5 344h0">
        </path>
        <path d="M477.5 344h0">
        </path>
        <rect height="22" width="139" x="338.5" y="333">
        </rect>
        <a>
         <text x="408" y="348">
          string_literal
         </text>
        </a>
       </g>
       <path d="M477.5 344h10">
       </path>
       <g>
        <path d="M487.5 344h0">
        </path>
        <path d="M732 344h0">
        </path>
        <path d="M487.5 344a10 10 0 0 0 10 -10v0a10 10 0 0 1 10 -10">
        </path>
        <g>
         <path d="M507.5 324h204.5">
         </path>
        </g>
        <path d="M712 324a10 10 0 0 1 10 10v0a10 10 0 0 0 10 10">
        </path>
        <path d="M487.5 344h20">
        </path>
        <g>
         <path d="M507.5 344h0">
         </path>
         <path d="M712 344h0">
         </path>
         <g class="terminal">
          <path d="M507.5 344h0">
          </path>
          <path d="M553 344h0">
          </path>
          <rect height="22" rx="10" ry="10" width="45.5" x="507.5" y="333">
          </rect>
          <text x="530.25" y="348">
           TTL
          </text>
         </g>
         <path d="M553 344h10">
         </path>
         <path d="M563 344h10">
         </path>
         <g class="non-terminal">
          <path d="M573 344h0">
          </path>
          <path d="M712 344h0">
          </path>
          <rect height="22" width="139" x="573" y="333">
          </rect>
          <a>
           <text x="642.5" y="348">
            string_literal
           </text>
          </a>
         </g>
        </g>
        <path d="M712 344h20">
        </path>
       </g>
      </g>
      <path d="M732 344h10">
      </path>
      <path d="M205 344a10 10 0 0 0 -10 10v0a10 10 0 0 0 10 10">
      </path>
      <g>
       <path d="M205 364h527">
       </path>
      </g>
      <path d="M732 364a10 10 0 0 0 10 -10v0a10 10 0 0 0 -10 -10">
      </path>
     </g>
     <path d="M742 344h20">
     </path>
    </g>
   </g>
   <path d="M762 344a10 10 0 0 0 10 -10v-293a10 10 0 0 1 10 -10">
   </path>
   <path d="M40 31a10 10 0 0 1 10 10v332a10 10 0 0 0 10 10">
   </path>
   <g>
    <path d="M60 383h165">
    </path>
    <path d="M597 383h165">
    </path>
    <g class="terminal">
     <path d="M225 383h0">
     </path>
     <path d="M321.5 383h0">
     </path>
     <rect height="22" rx="10" ry="10" width="96.5" x="225" y="372">
     </rect>
     <text x="273.25" y="387">
      TIMESTAMP
     </text>
    </g>
    <path d="M321.5 383h10">
    </path>
    <path d="M331.5 383h10">
    </path>
    <g class="terminal">
     <path d="M341.5 383h0">
     </path>
     <path d="M429.5 383h0">
     </path>
     <rect height="22" rx="10" ry="10" width="88" x="341.5" y="372">
     </rect>
     <text x="385.5" y="387">
      TIMEUNIT
     </text>
    </g>
    <path d="M429.5 383h10">
    </path>
    <path d="M439.5 383h10">
    </path>
    <g class="non-terminal">
     <path d="M449.5 383h0">
     </path>
     <path d="M597 383h0">
     </path>
     <rect height="22" width="147.5" x="449.5" y="372">
     </rect>
     <a>
      <text x="523.25" y="387">
       integer_literal
      </text>
     </a>
    </g>
   </g>
   <path d="M762 383a10 10 0 0 0 10 -10v-332a10 10 0 0 1 10 -10">
   </path>
   <path d="M40 31a10 10 0 0 1 10 10v370a10 10 0 0 0 10 10">
   </path>
   <g>
    <path d="M60 421h182.5">
    </path>
    <path d="M579.5 421h182.5">
    </path>
    <g class="terminal">
     <path d="M242.5 421h0">
     </path>
     <path d="M322 421h0">
     </path>
     <rect height="22" rx="10" ry="10" width="79.5" x="242.5" y="410">
     </rect>
     <text x="282.25" y="425">
      VARCHAR
     </text>
    </g>
    <path d="M322 421h10">
    </path>
    <g>
     <path d="M332 421h0">
     </path>
     <path d="M579.5 421h0">
     </path>
     <path d="M332 421a10 10 0 0 0 10 -10v0a10 10 0 0 1 10 -10">
     </path>
     <g>
      <path d="M352 401h207.5">
      </path>
     </g>
     <path d="M559.5 401a10 10 0 0 1 10 10v0a10 10 0 0 0 10 10">
     </path>
     <path d="M332 421h20">
     </path>
     <g>
      <path d="M352 421h0">
      </path>
      <path d="M559.5 421h0">
      </path>
      <path d="M352 421h10">
      </path>
      <g>
       <path d="M362 421h0">
       </path>
       <path d="M549.5 421h0">
       </path>
       <path d="M362 421h20">
       </path>
       <g class="non-terminal">
        <path d="M382 421h0">
        </path>
        <path d="M529.5 421h0">
        </path>
        <rect height="22" width="147.5" x="382" y="410">
        </rect>
        <a>
         <text x="455.75" y="425">
          integer_literal
         </text>
        </a>
       </g>
       <path d="M529.5 421h20">
       </path>
       <path d="M362 421a10 10 0 0 1 10 10v10a10 10 0 0 0 10 10">
       </path>
       <g class="terminal">
        <path d="M382 451h51">
        </path>
        <path d="M478.5 451h51">
        </path>
        <rect height="22" rx="10" ry="10" width="45.5" x="433" y="440">
        </rect>
        <text x="455.75" y="455">
         MAX
        </text>
       </g>
       <path d="M529.5 451a10 10 0 0 0 10 -10v-10a10 10 0 0 1 10 -10">
       </path>
      </g>
      <path d="M549.5 421h10">
      </path>
      <path d="M362 421a10 10 0 0 0 -10 10v29a10 10 0 0 0 10 10">
      </path>
      <g>
       <path d="M362 470h187.5">
       </path>
      </g>
      <path d="M549.5 470a10 10 0 0 0 10 -10v-29a10 10 0 0 0 -10 -10">
      </path>
     </g>
     <path d="M559.5 421h20">
     </path>
    </g>
   </g>
   <path d="M762 421a10 10 0 0 0 10 -10v-370a10 10 0 0 1 10 -10">
   </path>
   <path d="M40 31a10 10 0 0 1 10 10v446a10 10 0 0 0 10 10">
   </path>
   <g>
    <path d="M60 497h206.75">
    </path>
    <path d="M555.25 497h206.75">
    </path>
    <g class="terminal">
     <path d="M266.75 497h0">
     </path>
     <path d="M337.75 497h0">
     </path>
     <rect height="22" rx="10" ry="10" width="71" x="266.75" y="486">
     </rect>
     <text x="302.25" y="501">
      VECTOR
     </text>
    </g>
    <path d="M337.75 497h10">
    </path>
    <g>
     <path d="M347.75 497h0">
     </path>
     <path d="M555.25 497h0">
     </path>
     <path d="M347.75 497a10 10 0 0 0 10 -10v0a10 10 0 0 1 10 -10">
     </path>
     <g>
      <path d="M367.75 477h167.5">
      </path>
     </g>
     <path d="M535.25 477a10 10 0 0 1 10 10v0a10 10 0 0 0 10 10">
     </path>
     <path d="M347.75 497h20">
     </path>
     <g>
      <path d="M367.75 497h0">
      </path>
      <path d="M535.25 497h0">
      </path>
      <path d="M367.75 497h10">
      </path>
      <g class="non-terminal">
       <path d="M377.75 497h0">
       </path>
       <path d="M525.25 497h0">
       </path>
       <rect height="22" width="147.5" x="377.75" y="486">
       </rect>
       <a>
        <text x="451.5" y="501">
         integer_literal
        </text>
       </a>
      </g>
      <path d="M525.25 497h10">
      </path>
      <path d="M377.75 497a10 10 0 0 0 -10 10v0a10 10 0 0 0 10 10">
      </path>
      <g>
       <path d="M377.75 517h147.5">
       </path>
      </g>
      <path d="M525.25 517a10 10 0 0 0 10 -10v0a10 10 0 0 0 -10 -10">
      </path>
     </g>
     <path d="M535.25 497h20">
     </path>
    </g>
   </g>
   <path d="M762 497a10 10 0 0 0 10 -10v-446a10 10 0 0 1 10 -10">
   </path>
  </g>
  <path d="M 782 31 h 20 m 0 -10 v 20">
  </path>
 </g>
 <style>
  svg {
    width: 100%;
}

path {
    stroke-width: 3;
    stroke: black;
    fill: rgba(0,0,0,0);
}
text {
    font: bold 14px monospace;
    text-anchor: middle;
    fill: black;
}
text.diagram-text {
    font-size: 12px;
}
text.diagram-arrow {
    font-size: 16px;
}
text.label {
    text-anchor: start;
}
text.comment {
    font: italic 12px monospace;
}
g.special-sequence rect {
    fill: #ffe79a;
    stroke: black;
}
g.special-sequence text {
    font-style: italic;
}
rect {
    stroke-width: 3;
}
rect.group-box {
    stroke: gray;
    stroke-dasharray: 10 5;
    fill: none;
}
g.non-terminal rect {
    fill: #feffdf;
    stroke: black;
}
g.terminal rect {
    fill: #feffdf;
    stroke: black;
}
path.diagram-text {
    stroke-width: 3;
    stroke: black;
    fill: white;
    cursor: help;
}
g.diagram-text:hover path.diagram-text {
    fill: #eee;
}
 </style>
</svg>
